<svg width="224" height="224" viewBox="0 0 224 224" fill="none" xmlns="http://www.w3.org/2000/svg">
<path d="M58.8005 57.2102H86.4261V73.6418L75.0509 73.6418V151.327L86.4261 151.327V167.713H18.1746C10.9947 167.713 5.17432 161.892 5.17432 154.712V98.6486C5.17432 91.4688 10.9947 85.6483 18.1746 85.6483L50.0951 85.6483V101.951L23.016 101.951C22.1185 101.951 21.391 102.679 21.391 103.576V149.702C21.391 150.6 22.1185 151.327 23.016 151.327L58.8005 151.327V57.2102Z" fill="#08090C"/>
<path d="M155.168 100.156V152.991C155.168 156.581 152.258 159.491 148.668 159.491H138.472H109.79C106.2 159.491 103.29 156.581 103.29 152.991V100.156C103.29 96.5659 106.2 93.6557 109.79 93.6557H148.668C152.258 93.6557 155.168 96.5659 155.168 100.156Z" stroke="#08090C" stroke-width="16.3271"/>
<path d="M218.642 56.7327L187.51 167.16L170.927 167.164L202.449 56.7363L218.642 56.7327Z" fill="#08090C" stroke="#08090C" stroke-width="0.980625"/>
</svg>
