<svg width="282" height="280" viewBox="0 0 282 280" fill="none" xmlns="http://www.w3.org/2000/svg">
<path d="M184.343 0H98.5C96.2909 0 94.5 1.79086 94.5 4V91.5C94.5 93.7091 96.2909 95.5 98.5 95.5H183C185.209 95.5 187 97.2909 187 99.5V183.5C187 185.709 185.209 187.5 183 187.5H98.5C96.2909 187.5 94.5 189.291 94.5 191.5V276C94.5 278.209 96.2909 280 98.5 280H187.343C188.404 280 189.421 279.579 190.172 278.828L280.328 188.672C281.079 187.921 281.5 186.904 281.5 185.843V97.1569C281.5 96.096 281.079 95.0786 280.328 94.3284L187.172 1.17157C186.421 0.421427 185.404 0 184.343 0Z" fill="black"/>
<rect y="95" width="91" height="91" rx="4" fill="black"/>
</svg>
