<svg width="216" height="60" viewBox="0 0 216 60" fill="none" xmlns="http://www.w3.org/2000/svg">
<path d="M27.2662 27.9957L17.3809 19.63C16.2589 18.6803 14.5793 18.8202 13.6298 19.9426C12.6803 21.0649 12.8203 22.7445 13.9424 23.6942L21.4265 30.028L13.9424 36.3616C12.8203 37.3112 12.6804 38.9908 13.6298 40.1132C14.5816 41.238 16.2616 41.3731 17.3809 40.4257L27.2662 32.0599C28.5237 30.9957 28.5202 29.057 27.2662 27.9957Z" fill="url(#paint0_linear)"/>
<path d="M43.9293 35.7305H31.9528C30.4828 35.7305 29.2913 36.9222 29.2913 38.3924C29.2913 39.8627 30.4828 41.0544 31.9528 41.0544H43.9293C45.3991 41.0544 46.5909 39.8627 46.5909 38.3924C46.5909 36.9222 45.3993 35.7305 43.9293 35.7305Z" fill="black"/>
<path d="M84.97 36.28H77.11L75.85 40H70.48L78.1 18.94H84.04L91.66 40H86.23L84.97 36.28ZM83.65 32.32L81.04 24.61L78.46 32.32H83.65ZM110.509 23.26V40H105.379V37.72C104.859 38.46 104.149 39.06 103.249 39.52C102.369 39.96 101.389 40.18 100.309 40.18C99.0291 40.18 97.8991 39.9 96.9191 39.34C95.9391 38.76 95.1791 37.93 94.6391 36.85C94.0991 35.77 93.8291 34.5 93.8291 33.04V23.26H98.9291V32.35C98.9291 33.47 99.2191 34.34 99.7991 34.96C100.379 35.58 101.159 35.89 102.139 35.89C103.139 35.89 103.929 35.58 104.509 34.96C105.089 34.34 105.379 33.47 105.379 32.35V23.26H110.509ZM123.524 35.65V40H120.914C119.054 40 117.604 39.55 116.564 38.65C115.524 37.73 115.004 36.24 115.004 34.18V27.52H112.964V23.26H115.004V19.18H120.134V23.26H123.494V27.52H120.134V34.24C120.134 34.74 120.254 35.1 120.494 35.32C120.734 35.54 121.134 35.65 121.694 35.65H123.524ZM134.001 40.24C132.361 40.24 130.881 39.89 129.561 39.19C128.261 38.49 127.231 37.49 126.471 36.19C125.731 34.89 125.361 33.37 125.361 31.63C125.361 29.91 125.741 28.4 126.501 27.1C127.261 25.78 128.301 24.77 129.621 24.07C130.941 23.37 132.421 23.02 134.061 23.02C135.701 23.02 137.181 23.37 138.501 24.07C139.821 24.77 140.861 25.78 141.621 27.1C142.381 28.4 142.761 29.91 142.761 31.63C142.761 33.35 142.371 34.87 141.591 36.19C140.831 37.49 139.781 38.49 138.441 39.19C137.121 39.89 135.641 40.24 134.001 40.24ZM134.001 35.8C134.981 35.8 135.811 35.44 136.491 34.72C137.191 34 137.541 32.97 137.541 31.63C137.541 30.29 137.201 29.26 136.521 28.54C135.861 27.82 135.041 27.46 134.061 27.46C133.061 27.46 132.231 27.82 131.571 28.54C130.911 29.24 130.581 30.27 130.581 31.63C130.581 32.97 130.901 34 131.541 34.72C132.201 35.44 133.021 35.8 134.001 35.8ZM147.883 40.24C146.983 40.24 146.243 39.98 145.663 39.46C145.103 38.92 144.823 38.26 144.823 37.48C144.823 36.68 145.103 36.01 145.663 35.47C146.243 34.93 146.983 34.66 147.883 34.66C148.763 34.66 149.483 34.93 150.043 35.47C150.623 36.01 150.913 36.68 150.913 37.48C150.913 38.26 150.623 38.92 150.043 39.46C149.483 39.98 148.763 40.24 147.883 40.24ZM152.93 31.6C152.93 29.88 153.25 28.37 153.89 27.07C154.55 25.77 155.44 24.77 156.56 24.07C157.68 23.37 158.93 23.02 160.31 23.02C161.41 23.02 162.41 23.25 163.31 23.71C164.23 24.17 164.95 24.79 165.47 25.57V17.8H170.6V40H165.47V37.6C164.99 38.4 164.3 39.04 163.4 39.52C162.52 40 161.49 40.24 160.31 40.24C158.93 40.24 157.68 39.89 156.56 39.19C155.44 38.47 154.55 37.46 153.89 36.16C153.25 34.84 152.93 33.32 152.93 31.6ZM165.47 31.63C165.47 30.35 165.11 29.34 164.39 28.6C163.69 27.86 162.83 27.49 161.81 27.49C160.79 27.49 159.92 27.86 159.2 28.6C158.5 29.32 158.15 30.32 158.15 31.6C158.15 32.88 158.5 33.9 159.2 34.66C159.92 35.4 160.79 35.77 161.81 35.77C162.83 35.77 163.69 35.4 164.39 34.66C165.11 33.92 165.47 32.91 165.47 31.63ZM190.091 31.36C190.091 31.84 190.061 32.34 190.001 32.86H178.391C178.471 33.9 178.801 34.7 179.381 35.26C179.981 35.8 180.711 36.07 181.571 36.07C182.851 36.07 183.741 35.53 184.241 34.45H189.701C189.421 35.55 188.911 36.54 188.171 37.42C187.451 38.3 186.541 38.99 185.441 39.49C184.341 39.99 183.111 40.24 181.751 40.24C180.111 40.24 178.651 39.89 177.371 39.19C176.091 38.49 175.091 37.49 174.371 36.19C173.651 34.89 173.291 33.37 173.291 31.63C173.291 29.89 173.641 28.37 174.341 27.07C175.061 25.77 176.061 24.77 177.341 24.07C178.621 23.37 180.091 23.02 181.751 23.02C183.371 23.02 184.811 23.36 186.071 24.04C187.331 24.72 188.311 25.69 189.011 26.95C189.731 28.21 190.091 29.68 190.091 31.36ZM184.841 30.01C184.841 29.13 184.541 28.43 183.941 27.91C183.341 27.39 182.591 27.13 181.691 27.13C180.831 27.13 180.101 27.38 179.501 27.88C178.921 28.38 178.561 29.09 178.421 30.01H184.841ZM200.328 35.2L203.958 23.26H209.418L203.478 40H197.148L191.208 23.26H196.698L200.328 35.2Z" fill="black"/>
<defs>
<linearGradient id="paint0_linear" x1="15.2272" y1="37.8256" x2="29.804" y2="27.7744" gradientUnits="userSpaceOnUse">
<stop stop-color="#364AFF"/>
<stop offset="1" stop-color="#FC54FF"/>
</linearGradient>
</defs>
</svg>
